<svg height="100%" style="enable-background:new 0 0 512 512;" version="1.1" viewBox="0 0 512 512" width="100%" xml:space="preserve" xmlns="http://www.w3.org/2000/svg" xmlns:xlink="http://www.w3.org/1999/xlink"><g id="C_-_79_x2C__Network_x2C__Business_x2C__chart_x2C__graph_x2C__management_x2C__organization_x2C__plan_x2C__process"><g><path d="M105.633,395.386c-19.531,0-35.421,15.802-35.421,35.224s15.89,35.223,35.421,35.223    c19.526,0,35.412-15.801,35.412-35.223S125.159,395.386,105.633,395.386z M105.633,440.588c-5.541,0-10.028-4.466-10.028-9.979    c0-5.51,4.488-9.979,10.028-9.979c5.531,0,10.018,4.47,10.018,9.979C115.651,436.122,111.164,440.588,105.633,440.588z"/><path d="M256.004,395.386c-19.53,0-35.419,15.802-35.419,35.224s15.889,35.223,35.419,35.223    c19.526,0,35.412-15.801,35.412-35.223S275.53,395.386,256.004,395.386z M256.004,440.588c-5.538,0-10.026-4.466-10.026-9.979    c0-5.51,4.488-9.979,10.026-9.979c5.531,0,10.02,4.47,10.02,9.979C266.023,436.122,261.535,440.588,256.004,440.588z"/><path d="M150.416,196.442h211.168V86.078H150.416V196.442z M286.052,131.28h20.019v19.926h-20.019V131.28z M245.978,131.28h20.02    v19.926h-20.02V131.28z M205.905,131.28h20.021v19.926h-20.021V131.28z"/><path d="M406.377,395.386c-19.532,0-35.422,15.802-35.422,35.224s15.89,35.223,35.422,35.223    c19.525,0,35.412-15.801,35.412-35.223S425.902,395.386,406.377,395.386z M406.377,440.588c-5.541,0-10.027-4.466-10.027-9.979    c0-5.51,4.486-9.979,10.027-9.979c5.531,0,10.019,4.47,10.019,9.979C416.396,436.122,411.908,440.588,406.377,440.588z"/><path d="M105.633,365.453c2.588,0,4.686-2.098,4.686-4.686v-55.179h141v55.179c0,2.588,2.098,4.686,4.686,4.686    c2.588,0,4.686-2.098,4.686-4.686v-55.179h141.002v55.179c0,2.588,2.098,4.686,4.686,4.686s4.686-2.098,4.686-4.686v-59.864    c0-2.588-2.098-4.685-4.686-4.685H260.689V236.35h141.002V46.169H110.318V236.35h141v59.869H105.633    c-2.587,0-4.686,2.097-4.686,4.685v59.864C100.947,363.355,103.046,365.453,105.633,365.453z M141.045,201.128V81.393    c0-2.588,2.098-4.686,4.686-4.686H366.27c2.588,0,4.686,2.098,4.686,4.686v119.735c0,2.588-2.098,4.685-4.686,4.685H145.73    C143.143,205.813,141.045,203.716,141.045,201.128z"/></g></g><g id="Layer_1"/></svg>