<svg id="uuid-4bcb24ef-60cf-45ec-9fec-5c5c7ee70d71" xmlns="http://www.w3.org/2000/svg" xmlns:xlink="http://www.w3.org/1999/xlink" viewBox="0 0 838.27 585.46" height="100%"><defs><style>.uuid-7631981d-b9e5-4aef-beda-00c516e7f820,.uuid-145a1865-e412-4e15-ab97-aa28d74803f1,.uuid-be68f516-9312-4e8b-bbfa-ce095420a134,.uuid-79d97275-4909-447a-a87c-6120e911acaf,.uuid-ca72f5fa-904c-4eef-a4f5-c48f7200695a{fill:none;}.uuid-145a1865-e412-4e15-ab97-aa28d74803f1{stroke-dasharray:0 0 11.25 11.25;}.uuid-145a1865-e412-4e15-ab97-aa28d74803f1,.uuid-1daa8722-05d3-4285-8124-3c3451ee385c,.uuid-71681901-9c9f-4e72-9ff7-b4a087b2e96a,.uuid-4343cdc4-492b-4c93-8198-74373fbf86fb,.uuid-6c9937fd-0bd4-4c73-af30-5106f5adcaa3,.uuid-be68f516-9312-4e8b-bbfa-ce095420a134,.uuid-79d97275-4909-447a-a87c-6120e911acaf{stroke-width:2px;}.uuid-145a1865-e412-4e15-ab97-aa28d74803f1,.uuid-1daa8722-05d3-4285-8124-3c3451ee385c,.uuid-71681901-9c9f-4e72-9ff7-b4a087b2e96a,.uuid-4343cdc4-492b-4c93-8198-74373fbf86fb,.uuid-6c9937fd-0bd4-4c73-af30-5106f5adcaa3,.uuid-be68f516-9312-4e8b-bbfa-ce095420a134,.uuid-79d97275-4909-447a-a87c-6120e911acaf,.uuid-ca72f5fa-904c-4eef-a4f5-c48f7200695a{stroke:#000;stroke-miterlimit:10;}.uuid-1daa8722-05d3-4285-8124-3c3451ee385c{fill:#fff;}.uuid-71681901-9c9f-4e72-9ff7-b4a087b2e96a{fill:#231f20;}.uuid-4343cdc4-492b-4c93-8198-74373fbf86fb{fill:#14e700;}.uuid-6c9937fd-0bd4-4c73-af30-5106f5adcaa3{fill:#b4b6b8;}.uuid-f9054e96-1b8b-4b8a-9051-c93335886831{clip-path:url(#uuid-ce0e08be-3cc7-4fc7-8b8a-3a256420c5d1);}.uuid-79d97275-4909-447a-a87c-6120e911acaf{stroke-dasharray:0 0 11.48 11.48;}.uuid-ca72f5fa-904c-4eef-a4f5-c48f7200695a{stroke-width:.5px;}</style><clipPath id="uuid-ce0e08be-3cc7-4fc7-8b8a-3a256420c5d1"><rect class="uuid-7631981d-b9e5-4aef-beda-00c516e7f820" width="838.27" height="522"/></clipPath></defs><g class="uuid-f9054e96-1b8b-4b8a-9051-c93335886831"><g><polygon class="uuid-ca72f5fa-904c-4eef-a4f5-c48f7200695a" points="889.25 162.34 819.38 141.16 901.32 117.24 970.73 137.72 889.25 162.34"/><polygon class="uuid-ca72f5fa-904c-4eef-a4f5-c48f7200695a" points="807.78 186.97 737.44 165.08 819.38 141.16 889.25 162.34 807.78 186.97"/><polygon class="uuid-ca72f5fa-904c-4eef-a4f5-c48f7200695a" points="878.11 208.86 807.78 186.97 889.25 162.34 959.12 183.53 878.11 208.86"/><polygon class="uuid-ca72f5fa-904c-4eef-a4f5-c48f7200695a" points="726.3 211.6 655.51 188.99 737.44 165.08 807.78 186.97 726.3 211.6"/><polygon class="uuid-ca72f5fa-904c-4eef-a4f5-c48f7200695a" points="797.1 234.2 726.3 211.6 807.78 186.97 878.11 208.86 797.1 234.2"/><polygon class="uuid-ca72f5fa-904c-4eef-a4f5-c48f7200695a" points="867.9 256.81 797.1 234.2 878.11 208.86 948.45 230.76 867.9 256.81"/><polygon class="uuid-ca72f5fa-904c-4eef-a4f5-c48f7200695a" points="644.83 236.22 573.57 212.91 655.51 188.99 726.3 211.6 644.83 236.22"/><polygon class="uuid-ca72f5fa-904c-4eef-a4f5-c48f7200695a" points="716.09 259.54 644.83 236.22 726.3 211.6 797.1 234.2 716.09 259.54"/><polygon class="uuid-ca72f5fa-904c-4eef-a4f5-c48f7200695a" points="787.35 282.86 716.09 259.54 797.1 234.2 867.9 256.81 787.35 282.86"/><polygon class="uuid-ca72f5fa-904c-4eef-a4f5-c48f7200695a" points="858.61 306.17 787.35 282.86 867.9 256.81 938.7 279.41 858.61 306.17"/><polygon class="uuid-ca72f5fa-904c-4eef-a4f5-c48f7200695a" points="563.35 260.85 491.63 236.82 573.57 212.91 644.83 236.22 563.35 260.85"/><polygon class="uuid-ca72f5fa-904c-4eef-a4f5-c48f7200695a" points="635.08 284.88 563.35 260.85 644.83 236.22 716.09 259.54 635.08 284.88"/><polygon class="uuid-ca72f5fa-904c-4eef-a4f5-c48f7200695a" points="706.8 308.91 635.08 284.88 716.09 259.54 787.35 282.86 706.8 308.91"/><polygon class="uuid-ca72f5fa-904c-4eef-a4f5-c48f7200695a" points="778.53 332.94 706.8 308.91 787.35 282.86 858.61 306.17 778.53 332.94"/><polygon class="uuid-ca72f5fa-904c-4eef-a4f5-c48f7200695a" points="850.25 356.96 778.53 332.94 858.61 306.17 929.87 329.49 850.25 356.96"/><polygon class="uuid-ca72f5fa-904c-4eef-a4f5-c48f7200695a" points="481.88 285.48 409.69 260.74 491.63 236.82 563.35 260.85 481.88 285.48"/><polygon class="uuid-ca72f5fa-904c-4eef-a4f5-c48f7200695a" points="554.07 310.22 481.88 285.48 563.35 260.85 635.08 284.88 554.07 310.22"/><polygon class="uuid-ca72f5fa-904c-4eef-a4f5-c48f7200695a" points="626.26 334.96 554.07 310.22 635.08 284.88 706.8 308.91 626.26 334.96"/><polygon class="uuid-ca72f5fa-904c-4eef-a4f5-c48f7200695a" points="698.44 359.7 626.26 334.96 706.8 308.91 778.53 332.94 698.44 359.7"/><polygon class="uuid-ca72f5fa-904c-4eef-a4f5-c48f7200695a" points="770.63 384.44 698.44 359.7 778.53 332.94 850.25 356.96 770.63 384.44"/><polygon class="uuid-ca72f5fa-904c-4eef-a4f5-c48f7200695a" points="842.82 409.18 770.63 384.44 850.25 356.96 921.98 380.99 842.82 409.18"/><polygon class="uuid-ca72f5fa-904c-4eef-a4f5-c48f7200695a" points="400.4 310.1 327.75 284.65 409.69 260.74 481.88 285.48 400.4 310.1"/><polygon class="uuid-ca72f5fa-904c-4eef-a4f5-c48f7200695a" points="473.06 335.56 400.4 310.1 481.88 285.48 554.07 310.22 473.06 335.56"/><polygon class="uuid-ca72f5fa-904c-4eef-a4f5-c48f7200695a" points="545.71 361.01 473.06 335.56 554.07 310.22 626.26 334.96 545.71 361.01"/><polygon class="uuid-ca72f5fa-904c-4eef-a4f5-c48f7200695a" points="618.36 386.46 545.71 361.01 626.26 334.96 698.44 359.7 618.36 386.46"/><polygon class="uuid-ca72f5fa-904c-4eef-a4f5-c48f7200695a" points="691.01 411.91 618.36 386.46 698.44 359.7 770.63 384.44 691.01 411.91"/><polygon class="uuid-ca72f5fa-904c-4eef-a4f5-c48f7200695a" points="763.67 437.36 691.01 411.91 770.63 384.44 842.82 409.18 763.67 437.36"/><polygon class="uuid-ca72f5fa-904c-4eef-a4f5-c48f7200695a" points="836.32 462.81 763.67 437.36 842.82 409.18 915.01 433.91 836.32 462.81"/><polygon class="uuid-ca72f5fa-904c-4eef-a4f5-c48f7200695a" points="908.97 488.26 836.32 462.81 915.01 433.91 987.2 458.65 908.97 488.26"/><polygon class="uuid-ca72f5fa-904c-4eef-a4f5-c48f7200695a" points="318.93 334.73 245.81 308.57 327.75 284.65 400.4 310.1 318.93 334.73"/><polygon class="uuid-ca72f5fa-904c-4eef-a4f5-c48f7200695a" points="392.05 360.89 318.93 334.73 400.4 310.1 473.06 335.56 392.05 360.89"/><polygon class="uuid-ca72f5fa-904c-4eef-a4f5-c48f7200695a" points="465.16 387.06 392.05 360.89 473.06 335.56 545.71 361.01 465.16 387.06"/><polygon class="uuid-ca72f5fa-904c-4eef-a4f5-c48f7200695a" points="538.28 413.22 465.16 387.06 545.71 361.01 618.36 386.46 538.28 413.22"/><polygon class="uuid-ca72f5fa-904c-4eef-a4f5-c48f7200695a" points="611.39 439.38 538.28 413.22 618.36 386.46 691.01 411.91 611.39 439.38"/><polygon class="uuid-ca72f5fa-904c-4eef-a4f5-c48f7200695a" points="684.51 465.54 611.39 439.38 691.01 411.91 763.67 437.36 684.51 465.54"/><polygon class="uuid-ca72f5fa-904c-4eef-a4f5-c48f7200695a" points="757.62 491.7 684.51 465.54 763.67 437.36 836.32 462.81 757.62 491.7"/><polygon class="uuid-ca72f5fa-904c-4eef-a4f5-c48f7200695a" points="830.74 517.87 757.62 491.7 836.32 462.81 908.97 488.26 830.74 517.87"/><polygon class="uuid-ca72f5fa-904c-4eef-a4f5-c48f7200695a" points="903.86 544.03 830.74 517.87 908.97 488.26 981.62 513.71 903.86 544.03"/><polygon class="uuid-ca72f5fa-904c-4eef-a4f5-c48f7200695a" points="237.46 359.36 163.88 332.48 245.81 308.57 318.93 334.73 237.46 359.36"/><polygon class="uuid-ca72f5fa-904c-4eef-a4f5-c48f7200695a" points="311.04 386.23 237.46 359.36 318.93 334.73 392.05 360.89 311.04 386.23"/><polygon class="uuid-ca72f5fa-904c-4eef-a4f5-c48f7200695a" points="384.61 413.1 311.04 386.23 392.05 360.89 465.16 387.06 384.61 413.1"/><polygon class="uuid-ca72f5fa-904c-4eef-a4f5-c48f7200695a" points="458.19 439.98 384.61 413.1 465.16 387.06 538.28 413.22 458.19 439.98"/><polygon class="uuid-ca72f5fa-904c-4eef-a4f5-c48f7200695a" points="531.77 466.85 458.19 439.98 538.28 413.22 611.39 439.38 531.77 466.85"/><polygon class="uuid-ca72f5fa-904c-4eef-a4f5-c48f7200695a" points="605.35 493.73 531.77 466.85 611.39 439.38 684.51 465.54 605.35 493.73"/><polygon class="uuid-ca72f5fa-904c-4eef-a4f5-c48f7200695a" points="678.93 520.6 605.35 493.73 684.51 465.54 757.62 491.7 678.93 520.6"/><polygon class="uuid-ca72f5fa-904c-4eef-a4f5-c48f7200695a" points="752.51 547.47 678.93 520.6 757.62 491.7 830.74 517.87 752.51 547.47"/><polygon class="uuid-ca72f5fa-904c-4eef-a4f5-c48f7200695a" points="826.09 574.35 752.51 547.47 830.74 517.87 903.86 544.03 826.09 574.35"/><polygon class="uuid-ca72f5fa-904c-4eef-a4f5-c48f7200695a" points="899.67 601.22 826.09 574.35 903.86 544.03 976.97 570.19 899.67 601.22"/><polygon class="uuid-ca72f5fa-904c-4eef-a4f5-c48f7200695a" points="155.98 383.98 81.94 356.4 163.88 332.48 237.46 359.36 155.98 383.98"/><polygon class="uuid-ca72f5fa-904c-4eef-a4f5-c48f7200695a" points="230.02 411.57 155.98 383.98 237.46 359.36 311.04 386.23 230.02 411.57"/><polygon class="uuid-ca72f5fa-904c-4eef-a4f5-c48f7200695a" points="304.07 439.15 230.02 411.57 311.04 386.23 384.61 413.1 304.07 439.15"/><polygon class="uuid-ca72f5fa-904c-4eef-a4f5-c48f7200695a" points="378.11 466.74 304.07 439.15 384.61 413.1 458.19 439.98 378.11 466.74"/><polygon class="uuid-ca72f5fa-904c-4eef-a4f5-c48f7200695a" points="452.15 494.32 378.11 466.74 458.19 439.98 531.77 466.85 452.15 494.32"/><polygon class="uuid-ca72f5fa-904c-4eef-a4f5-c48f7200695a" points="526.2 521.91 452.15 494.32 531.77 466.85 605.35 493.73 526.2 521.91"/><polygon class="uuid-ca72f5fa-904c-4eef-a4f5-c48f7200695a" points="600.24 549.49 526.2 521.91 605.35 493.73 678.93 520.6 600.24 549.49"/><polygon class="uuid-ca72f5fa-904c-4eef-a4f5-c48f7200695a" points="674.28 577.08 600.24 549.49 678.93 520.6 752.51 547.47 674.28 577.08"/><polygon class="uuid-ca72f5fa-904c-4eef-a4f5-c48f7200695a" points="748.32 604.66 674.28 577.08 752.51 547.47 826.09 574.35 748.32 604.66"/><polygon class="uuid-ca72f5fa-904c-4eef-a4f5-c48f7200695a" points="822.37 632.25 748.32 604.66 826.09 574.35 899.67 601.22 822.37 632.25"/><polygon class="uuid-ca72f5fa-904c-4eef-a4f5-c48f7200695a" points="74.51 408.61 0 380.32 81.94 356.4 155.98 383.98 74.51 408.61"/><polygon class="uuid-ca72f5fa-904c-4eef-a4f5-c48f7200695a" points="149.01 436.91 74.51 408.61 155.98 383.98 230.02 411.57 149.01 436.91"/><polygon class="uuid-ca72f5fa-904c-4eef-a4f5-c48f7200695a" points="223.52 465.2 149.01 436.91 230.02 411.57 304.07 439.15 223.52 465.2"/><polygon class="uuid-ca72f5fa-904c-4eef-a4f5-c48f7200695a" points="298.03 493.5 223.52 465.2 304.07 439.15 378.11 466.74 298.03 493.5"/><polygon class="uuid-ca72f5fa-904c-4eef-a4f5-c48f7200695a" points="372.53 521.8 298.03 493.5 378.11 466.74 452.15 494.32 372.53 521.8"/><polygon class="uuid-ca72f5fa-904c-4eef-a4f5-c48f7200695a" points="447.04 550.09 372.53 521.8 452.15 494.32 526.2 521.91 447.04 550.09"/><polygon class="uuid-ca72f5fa-904c-4eef-a4f5-c48f7200695a" points="521.55 578.39 447.04 550.09 526.2 521.91 600.24 549.49 521.55 578.39"/><polygon class="uuid-ca72f5fa-904c-4eef-a4f5-c48f7200695a" points="596.05 606.69 521.55 578.39 600.24 549.49 674.28 577.08 596.05 606.69"/><polygon class="uuid-ca72f5fa-904c-4eef-a4f5-c48f7200695a" points="670.56 634.98 596.05 606.69 674.28 577.08 748.32 604.66 670.56 634.98"/></g><rect class="uuid-6c9937fd-0bd4-4c73-af30-5106f5adcaa3" x="155.9" y="156.88" width="267.28" height="186.4" rx="10.18" ry="10.18"/><rect class="uuid-4343cdc4-492b-4c93-8198-74373fbf86fb" x="475.89" y="182.03" width="267.28" height="186.4" rx="10.18" ry="10.18"/><path class="uuid-71681901-9c9f-4e72-9ff7-b4a087b2e96a" d="M166.08,156.88h246.92c5.62,0,10.18,4.56,10.18,10.18v14.97H155.9v-14.97c0-5.62,4.56-10.18,10.18-10.18Z"/><path class="uuid-71681901-9c9f-4e72-9ff7-b4a087b2e96a" d="M486.07,182.03h246.92c5.62,0,10.18,4.56,10.18,10.18v14.97H475.89v-14.97c0-5.62,4.56-10.18,10.18-10.18Z"/><g><line class="uuid-be68f516-9312-4e8b-bbfa-ce095420a134" x1="438.81" y1="240.57" x2="532.16" y2="240.57"/><g><line class="uuid-be68f516-9312-4e8b-bbfa-ce095420a134" x1="370.54" y1="240.57" x2="376.54" y2="240.57"/><line class="uuid-145a1865-e412-4e15-ab97-aa28d74803f1" x1="387.79" y1="240.57" x2="427.18" y2="240.57"/><line class="uuid-be68f516-9312-4e8b-bbfa-ce095420a134" x1="432.81" y1="240.57" x2="438.81" y2="240.57"/></g><polyline class="uuid-be68f516-9312-4e8b-bbfa-ce095420a134" points="522.18 229.41 532.16 240.57 522.18 251.74"/></g><g><line class="uuid-be68f516-9312-4e8b-bbfa-ce095420a134" x1="462.76" y1="302.75" x2="370.54" y2="302.75"/><g><line class="uuid-be68f516-9312-4e8b-bbfa-ce095420a134" x1="532.16" y1="302.75" x2="526.16" y2="302.75"/><line class="uuid-79d97275-4909-447a-a87c-6120e911acaf" x1="514.68" y1="302.75" x2="474.5" y2="302.75"/><line class="uuid-be68f516-9312-4e8b-bbfa-ce095420a134" x1="468.76" y1="302.75" x2="462.76" y2="302.75"/></g><polyline class="uuid-be68f516-9312-4e8b-bbfa-ce095420a134" points="380.53 313.91 370.54 302.75 380.53 291.59"/></g><circle class="uuid-1daa8722-05d3-4285-8124-3c3451ee385c" cx="257.92" cy="352.98" r="62.1"/><rect class="uuid-be68f516-9312-4e8b-bbfa-ce095420a134" x="217.94" y="343.87" width="45.57" height="25.08" rx="12.54" ry="12.54"/><rect class="uuid-be68f516-9312-4e8b-bbfa-ce095420a134" x="252.33" y="337" width="45.57" height="25.08" rx="12.54" ry="12.54"/><rect class="uuid-1daa8722-05d3-4285-8124-3c3451ee385c" x="512.48" y="349.87" width="179.79" height="101.59" rx="7.36" ry="7.36"/><g><g><rect class="uuid-be68f516-9312-4e8b-bbfa-ce095420a134" x="544.32" y="372.98" width="23.61" height="23.61" rx="2.26" ry="2.26"/><rect class="uuid-be68f516-9312-4e8b-bbfa-ce095420a134" x="544.32" y="406.75" width="23.61" height="23.61" rx="2.26" ry="2.26"/><line class="uuid-be68f516-9312-4e8b-bbfa-ce095420a134" x1="581.47" y1="390.24" x2="658.06" y2="390.24"/><line class="uuid-be68f516-9312-4e8b-bbfa-ce095420a134" x1="581.47" y1="424.71" x2="658.06" y2="424.71"/></g><polyline class="uuid-be68f516-9312-4e8b-bbfa-ce095420a134" points="551.27 385.54 556.13 390.65 575.54 368.66"/></g><g><circle class="uuid-1daa8722-05d3-4285-8124-3c3451ee385c" cx="660.74" cy="164.93" r="62.1"/><circle class="uuid-1daa8722-05d3-4285-8124-3c3451ee385c" cx="655.21" cy="143.88" r="10.38"/><path class="uuid-1daa8722-05d3-4285-8124-3c3451ee385c" d="M636,192.97v-18.67c0-7.66,6.64-13.86,14.83-13.86h8.74c8.19,0,14.83,6.21,14.83,13.86v18.67"/><g><line class="uuid-71681901-9c9f-4e72-9ff7-b4a087b2e96a" x1="686.16" y1="139.72" x2="686.16" y2="161.98"/><line class="uuid-71681901-9c9f-4e72-9ff7-b4a087b2e96a" x1="697.29" y1="150.85" x2="675.02" y2="150.85"/></g></g></g></svg>